HIERARCHY
ROOT Hips
{
  OFFSET 49.0794 95.6391 7.25949
  CHANNELS 6 Xposition Yposition Zposition Zrotation Xrotation Yrotation
  JOINT spine
  {
    OFFSET 0 8.13249 0.467659
    CHANNELS 3 Zrotation Xrotation Yrotation
    JOINT spine1
    {
      OFFSET 0 10.3498 0
      CHANNELS 3 Zrotation Xrotation Yrotation
      JOINT spine2
      {
        OFFSET 0 9.91699 0
        CHANNELS 3 Zrotation Xrotation Yrotation
        JOINT Neck
        {
          OFFSET 0 25.461 1.2139
          CHANNELS 3 Zrotation Xrotation Yrotation
          JOINT Head
          {
            OFFSET 0 7.69245 0
            CHANNELS 3 Zrotation Xrotation Yrotation
            End Site
            {
              OFFSET 0 18.62 -6.14063
            }
          }
        }
        JOINT RightShoulder
        {
          OFFSET -4.17575 10.7096 -0.581445
          CHANNELS 3 Zrotation Xrotation Yrotation
          JOINT RightArm
          {
            OFFSET 0 14.0466 0
            CHANNELS 3 Zrotation Xrotation Yrotation
            JOINT RightArmRoll
            {
              OFFSET 0 7.09098 0
              CHANNELS 3 Zrotation Xrotation Yrotation
              JOINT RightForeArm
              {
                OFFSET 0 20.6535 0
                CHANNELS 3 Zrotation Xrotation Yrotation
                JOINT RightForeArmRoll
                {
                  OFFSET 0 7.95718 0
                  CHANNELS 3 Zrotation Xrotation Yrotation
                  JOINT RightHand
                  {
                    OFFSET 0 15.9683 0
                    CHANNELS 3 Zrotation Xrotation Yrotation
                    End Site
                    {
                      OFFSET 0 0 0
                    }
                  }
                }
              }
            }
          }
        }
        JOINT LeftShoulder
        {
          OFFSET 4.17575 10.7096 -0.581445
          CHANNELS 3 Zrotation Xrotation Yrotation
          JOINT LeftArm
          {
            OFFSET 0 14.0466 0
            CHANNELS 3 Zrotation Xrotation Yrotation
            JOINT LeftArmRoll
            {
              OFFSET 0 7.09098 0
              CHANNELS 3 Zrotation Xrotation Yrotation
              JOINT LeftForeArm
              {
                OFFSET 0 20.6535 0
                CHANNELS 3 Zrotation Xrotation Yrotation
                JOINT LeftForeArmRoll
                {
                  OFFSET 0 7.95718 0
                  CHANNELS 3 Zrotation Xrotation Yrotation
                  JOINT LeftHand
                  {
                    OFFSET 0 15.9683 0
                    CHANNELS 3 Zrotation Xrotation Yrotation
                    End Site
                    {
                      OFFSET 0 0 0
                    }
                  }
                }
              }
            }
          }
        }
      }
    }
  }
  JOINT RightUpLeg
  {
    OFFSET -7.20834 -1.32182 -1.10884
    CHANNELS 3 Zrotation Xrotation Yrotation
    JOINT RightUpLegRoll
    {
      OFFSET 0 18.7238 0
      CHANNELS 3 Zrotation Xrotation Yrotation
      JOINT RightLeg
      {
        OFFSET 0 -23.1866 0
        CHANNELS 3 Zrotation Xrotation Yrotation
        JOINT RightLegRoll
        {
          OFFSET 0 23.2624 0
          CHANNELS 3 Zrotation Xrotation Yrotation
          JOINT RightFoot
          {
            OFFSET 0 19.3621 0
            CHANNELS 3 Zrotation Xrotation Yrotation
            JOINT RightToeBase
            {
              OFFSET 0 16.1857 0
              CHANNELS 3 Zrotation Xrotation Yrotation
              End Site
              {
                OFFSET 0.00686052 7.83863 -0.903522
              }
            }
          }
        }
      }
    }
  }
  JOINT LeftUpLeg
  {
    OFFSET 7.20834 -1.32182 -1.10884
    CHANNELS 3 Zrotation Xrotation Yrotation
    JOINT LeftUpLegRoll
    {
      OFFSET 0 18.7239 0
      CHANNELS 3 Zrotation Xrotation Yrotation
      JOINT LeftLeg
      {
        OFFSET 0 23.1865 0
        CHANNELS 3 Zrotation Xrotation Yrotation
        JOINT LeftLegRoll
        {
          OFFSET 0 23.4775 0
          CHANNELS 3 Zrotation Xrotation Yrotation
          JOINT LeftFoot
          {
            OFFSET 0 19.147 0
            CHANNELS 3 Zrotation Xrotation Yrotation
            JOINT LeftToeBase
            {
              OFFSET 0 16.1857 0
              CHANNELS 3 Zrotation Xrotation Yrotation
              End Site
              {
                OFFSET -0.0307459 7.83863 -0.903522
              }
            }
          }
        }
      }
    }
  }
}
MOTION
Frames: 10
Frame Time: 0.00208333
47.9791 95.6215 8.40871 1.71548 -4.42241 18.5488 0.295558 -0.527162 -0.43613 0.592028 2.94618 -0.907856 0.603649 4.59111 -0.918596 -3.05054 20.0662 -7.71925 -9.97213 0.313078 -9.7467 53.0383 -10.7129 -6.69462 91.1297 66.9597 -9.23229 4.58455e-005 -3.90362e-006 -9.36195e-006 27.9072 83.3422 -29.8166 -5.84458e-006 -2.09091e-006 -3.00152 8.029 -4.95146 0.697678 -55.1112 -1.37928 0.457162 -110.838 70.6692 44.9444 -7.15872e-007 -5.0229e-008 5.18533e-006 -6.19997 66.3917 5.40816 7.22475e-006 6.31228e-007 3.00004 -8.029 -4.95145 -0.697678 173.104 9.15396 3.50404 180 7.01603e-015 179.201 177.724 10.2493 179.784 -1.2702e-006 3.14078e-006 0.0241862 -13.1754 65.5107 17.8807 8.13432 25.2328 -3.48681 -178.181 -5.49388 -0.163712 -1.07169e-005 -4.64205e-006 -1.21933 -1.89507 -14.864 0.137636 -8.8353e-007 2.87672e-007 -0.486583 28.4914 75.9933 -30.0233 -8.19876 26.3558 2.48003 
47.9609 95.6295 8.40803 1.67879 -4.46047 18.4426 0.29421 -0.53276 -0.451101 0.589294 2.9349 -0.937595 0.601268 4.57983 -0.948313 -2.75937 20.147 -7.73987 -10.2923 0.232066 -9.71223 53.4056 -10.8194 -6.76889 90.8453 66.5658 -9.53862 4.58455e-005 -3.90362e-006 -9.36195e-006 30.4937 84.1057 -32.6079 -5.84458e-006 -2.09091e-006 -3.0015 8.029 -4.95146 0.697678 -54.9449 -1.17888 0.304897 -110.843 71.1071 44.5693 -7.15872e-007 -5.0229e-008 5.18533e-006 -6.61586 65.4522 5.61648 7.22475e-006 6.31228e-007 3.00003 -8.029 -4.95145 -0.697678 173.155 9.12866 3.47539 180 7.01602e-015 179.199 177.726 10.2181 179.784 -1.2702e-006 3.14078e-006 0.0240031 -13.1793 65.494 17.8702 8.13432 25.2328 -3.48681 -178.152 -5.53359 -0.19702 -1.07169e-005 -4.64205e-006 -1.21927 -1.90989 -14.8834 0.135546 -8.8353e-007 2.87672e-007 -0.486713 28.5396 76.0174 -30.0737 -8.20004 26.3752 2.49069 
47.9906 95.6479 8.41419 1.63695 -4.49801 18.3372 0.293554 -0.53863 -0.466693 0.587945 2.92307 -0.968658 0.600288 4.568 -0.979379 -2.47174 20.2225 -7.75671 -10.6124 0.156212 -9.67466 53.7623 -10.9241 -6.84092 90.5796 66.1662 -9.85327 4.58455e-005 -3.90362e-006 -9.36195e-006 33.7547 84.8519 -36.0794 -5.84458e-006 -2.09091e-006 -3.00149 8.029 -4.95146 0.697678 -54.7666 -0.982018 0.152253 -110.88 71.5463 44.2089 -7.15872e-007 -5.0229e-008 5.18533e-006 -6.98454 64.49 5.78506 7.22475e-006 6.31228e-007 3.00003 -8.029 -4.95145 -0.697678 173.213 9.10328 3.44191 180 7.01602e-015 179.197 177.73 10.1839 179.785 -1.2702e-006 3.14078e-006 0.0237317 -13.1836 65.4769 17.8593 8.13432 25.2328 -3.48681 -178.114 -5.56967 -0.23514 -1.07169e-005 -4.64205e-006 -1.21902 -1.92572 -14.9068 0.13329 -8.8353e-007 2.87672e-007 -0.48687 28.5951 76.0448 -30.1314 -8.20114 26.3918 2.50049 
47.9951 95.6396 8.41358 1.58942 -4.53505 18.2324 0.293729 -0.544815 -0.482969 0.588252 2.91061 -1.00119 0.600984 4.55553 -1.01194 -2.1895 20.2923 -7.76882 -10.9313 0.0859976 -9.63349 54.106 -11.0269 -6.9104 90.3369 65.7603 -10.1782 4.58455e-005 -3.90362e-006 -9.36195e-006 37.9918 85.5744 -40.5325 -5.84458e-006 -2.09091e-006 -3.00148 8.029 -4.95146 0.697678 -54.5755 -0.789156 -0.000693647 -110.953 71.9863 43.8656 -7.15872e-007 -5.0229e-008 5.18533e-006 -7.30772 63.5039 5.91612 7.22475e-006 6.31228e-007 3.00003 -8.029 -4.95145 -0.697678 173.279 9.07785 3.40306 180 7.01602e-015 179.196 177.734 10.1464 179.785 -1.2702e-006 3.14078e-006 0.0233618 -13.1883 65.4592 17.8481 8.13432 25.2328 -3.48681 -178.069 -5.60174 -0.278602 -1.07169e-005 -4.64205e-006 -1.21855 -1.94268 -14.9349 0.130854 -8.8353e-007 2.87672e-007 -0.487058 28.6588 76.0757 -30.1974 -8.20202 26.4054 2.50921 
48.0115 95.6136 8.41352 1.53533 -4.57166 18.1282 0.294706 -0.551452 -0.499903 0.590159 2.89724 -1.03513 0.603299 4.54215 -1.04594 -1.90853 20.3591 -7.77766 -11.2518 0.01928 -9.58935 54.4402 -11.1275 -6.97738 90.1111 65.3471 -10.5108 4.58455e-005 -3.90362e-006 -9.36195e-006 43.7442 86.265 -46.5087 -5.84458e-006 -2.09091e-006 -3.00146 8.029 -4.95146 0.697678 -54.3705 -0.599846 -0.153945 -111.058 72.4327 43.5416 -7.15872e-007 -5.0229e-008 5.18533e-006 -7.60192 62.4913 6.01857 7.22475e-006 6.31228e-007 3.00003 -8.029 -4.95145 -0.697678 173.354 9.0519 3.35812 180 7.01601e-015 179.194 177.741 10.1045 179.785 -1.2702e-006 3.14078e-006 0.0228842 -13.1927 65.4403 17.8361 8.13432 25.2328 -3.48681 -178.014 -5.62935 -0.328312 -1.07169e-005 -4.64205e-006 -1.21785 -1.96099 -14.9685 0.1282 -8.8353e-007 2.87672e-007 -0.487291 28.7324 76.1109 -30.2733 -8.20269 26.4162 2.51723 
48.0304 95.6179 8.40199 1.47471 -4.60786 18.0246 0.296305 -0.55859 -0.517404 0.593304 2.88285 -1.07027 0.606867 4.52776 -1.08117 -1.62368 20.4254 -7.78541 -11.5773 -0.0460713 -9.54325 54.7701 -11.2263 -7.0423 89.8918 64.9262 -10.8464 4.58455e-005 -3.90362e-006 -9.36195e-006 51.9341 86.905 -54.9329 -5.84458e-006 -2.09091e-006 -3.00145 8.029 -4.95146 0.697678 -54.1522 -0.413237 -0.307598 -111.186 72.8897 43.2373 -7.15872e-007 -5.0229e-008 5.18533e-006 -7.88178 61.4516 6.10084 7.22475e-006 6.31228e-007 3.00003 -8.029 -4.95145 -0.697678 173.438 9.02507 3.30718 180 7.01601e-015 179.192 177.748 10.0575 179.785 -1.2702e-006 3.14078e-006 0.0223034 -13.1965 65.4198 17.8232 8.13432 25.2328 -3.48681 -177.949 -5.6526 -0.384319 -1.07169e-005 -4.64205e-006 -1.21692 -1.98068 -15.0074 0.12532 -8.8353e-007 2.87672e-007 -0.487581 28.8159 76.1503 -30.3592 -8.20321 26.4249 2.52508 
47.9983 95.6075 8.42062 1.40832 -4.64363 17.9216 0.298436 -0.566145 -0.535437 0.597505 2.86763 -1.10654 0.611506 4.51252 -1.11754 -1.33527 20.4901 -7.79215 -11.9071 -0.109553 -9.49532 55.0963 -11.3237 -7.10534 89.6773 64.4985 -11.1836 4.58455e-005 -3.90362e-006 -9.36195e-006 63.9447 87.4541 -67.1877 -5.84458e-006 -2.09091e-006 -3.00144 8.029 -4.95146 0.697678 -53.9214 -0.229175 -0.46172 -111.339 73.3558 42.9524 -7.15872e-007 -5.0229e-008 5.18533e-006 -8.14603 60.3868 6.16423 7.22475e-006 6.31228e-007 3.00003 -8.029 -4.95145 -0.697678 173.53 8.99753 3.25094 180 7.01601e-015 179.19 177.757 10.0061 179.785 -1.2702e-006 3.14078e-006 0.0216306 -13.1998 65.3979 17.8094 8.13432 25.2328 -3.48681 -177.876 -5.67193 -0.445872 -1.07169e-005 -4.64205e-006 -1.21578 -2.00157 -15.051 0.122242 -8.8353e-007 2.87672e-007 -0.487918 28.9083 76.1934 -30.454 -8.20359 26.4317 2.53277 
48.0293 95.6059 8.43893 1.33691 -4.67894 17.8194 0.301008 -0.57403 -0.553966 0.602579 2.85173 -1.14386 0.617031 4.49662 -1.15496 -1.04361 20.5527 -7.79799 -12.2409 -0.170662 -9.44566 55.419 -11.4198 -7.1667 89.4658 64.0648 -11.5213 4.58455e-005 -3.90362e-006 -9.36195e-006 81.241 87.8403 -84.7376 -5.84458e-006 -2.09091e-006 -3.00142 8.029 -4.95146 0.697678 -53.6793 -0.0475114 -0.616379 -111.517 73.8294 42.6866 -7.15872e-007 -5.0229e-008 5.18533e-006 -8.39338 59.2988 6.2099 7.22475e-006 6.31228e-007 3.00003 -8.029 -4.95145 -0.697678 173.628 8.96946 3.19008 180 7.01601e-015 179.188 177.767 9.95104 179.785 -1.2702e-006 3.14078e-006 0.0208768 -13.2028 65.3749 17.7951 8.13432 25.2328 -3.48681 -177.795 -5.68779 -0.512217 -1.07169e-005 -4.64205e-006 -1.21446 -2.02351 -15.0986 0.11899 -8.8353e-007 2.87672e-007 -0.488296 29.0083 76.2395 -30.5565 -8.20384 26.4369 2.54029 
48.083 95.6066 8.42007 1.26123 -4.71374 17.7182 0.303931 -0.582159 -0.572955 0.608346 2.83534 -1.18213 0.623261 4.48021 -1.19336 -0.749011 20.6122 -7.80303 -12.5783 -0.228895 -9.39438 55.739 -11.5151 -7.22658 89.2556 63.626 -11.8584 4.58455e-005 -3.90362e-006 -9.36195e-006 103.063 87.9681 -106.823 -5.84458e-006 -2.09091e-006 -3.00141 8.029 -4.95146 0.697678 -53.4268 0.131906 -0.771642 -111.72 74.3086 42.4395 -7.15872e-007 -5.0229e-008 5.18533e-006 -8.62244 58.1896 6.23897 7.22475e-006 6.31228e-007 3.00003 -8.029 -4.95145 -0.697678 173.732 8.94103 3.12529 180 7.016e-015 179.187 177.778 9.89294 179.785 -1.2702e-006 3.14078e-006 0.0200529 -13.2058 65.3512 17.7803 8.13432 25.2328 -3.48681 -177.708 -5.70063 -0.582604 -1.07169e-005 -4.64205e-006 -1.21298 -2.04631 -15.1494 0.115592 -8.8353e-007 2.87672e-007 -0.488707 29.115 76.2882 -30.6657 -8.20399 26.4405 2.54764 
48.0796 95.6032 8.43094 1.18206 -4.748 17.618 0.307114 -0.590448 -0.592368 0.614624 2.81862 -1.22128 0.630014 4.46349 -1.23265 -0.451788 20.668 -7.80736 -12.9187 -0.283746 -9.3416 56.0564 -11.6097 -7.28516 89.0453 63.1829 -12.194 4.58455e-005 -3.90362e-006 -9.36195e-006 124.358 87.793 -128.389 -5.84458e-006 -2.09091e-006 -3.0014 8.029 -4.95146 0.697678 -53.1651 0.309228 -0.927576 -111.95 74.7919 42.2112 -7.15872e-007 -5.0229e-008 5.18533e-006 -8.8318 57.0611 6.25243 7.22475e-006 6.31228e-007 3.00003 -8.029 -4.95145 -0.697678 173.841 8.9124 3.05726 180 7.016e-015 179.185 177.79 9.83251 179.784 -1.2702e-006 3.14078e-006 0.01917 -13.2089 65.327 17.7652 8.13432 25.2328 -3.48681 -177.616 -5.71092 -0.656279 -1.07169e-005 -4.64205e-006 -1.21135 -2.06981 -15.2027 0.112073 -8.8353e-007 2.87672e-007 -0.489142 29.227 76.3388 -30.7803 -8.20404 26.4429 2.55484 
